#!OML:ASF F:\VICON\USERDATA\Patient Classification 1\PLAYGROUND\JustinFriday\JustinFriday.ASF
:FULLY-SPECIFIED
:DEGREES
1905
root -0.17151 13.9469 12.9204 -580.555 -212.705 162.139
lowerback 7.18011 7.49085 0.0663037
upperback 0.809994 10.0799 1.70012
thorax -3.43647 5.03815 0.685981
lowerneck 17.5831 -8.86844 -14.8449
upperneck 6.4626 -14.8791 20.471
head 1.69036 -8.13975 9.15651
rclavicle -5.1684e-014 -6.36111e-015
rhumerus -31.4106 -30.3253 -27.7767
rradius 108.153
rwrist 345.684
rhand -28.4773 -31.9062
rfingers 7.12502
rthumb -1.84686 -61.878
lclavicle -5.1684e-014 -6.36111e-015
lhumerus 6.14307 58.6054 -2.36553
lradius 41.2823
lwrist 44.0377
lhand -14.5303 1.32175
lfingers 7.12502
lthumb 11.6177 30.9797
rfemur 16.0455 -18.3597 5.19045
rtibia 76.4104
rfoot -25.8373 -21.26
rtoes -23.7798
lfemur -8.79055 -20.2379 -2.59967
ltibia 87.4336
lfoot -36.6971 -22.0938
ltoes -15.7137
1906
root -0.160805 14.0657 12.9828 -579.696 -213.014 162.588
lowerback 7.10866 7.58024 0.137372
upperback 0.878768 10.2076 1.81239
thorax -3.33644 5.10305 0.764161
lowerneck 17.7128 -8.86894 -15.0801
upperneck 5.79062 -14.853 20.6038
head 1.4971 -8.15407 9.2584
rclavicle 8.5875e-014 3.18055e-015
rhumerus -31.7684 -29.4262 -28.3437
rradius 105.9
rwrist 345.446
rhand -28.0688 -31.4872
rfingers 7.12502
rthumb -1.45233 -61.462
lclavicle 8.5875e-014 3.18055e-015
lhumerus 0.277855 56.9085 -4.24156
lradius 42.4676
lwrist 42.3088
lhand -17.2734 3.24091
lfingers 7.12502
lthumb 8.97149 33.0302
rfemur 15.8869 -18.5012 5.56679
rtibia 75.4799
rfoot -25.599 -22.1131
rtoes -22.7298
lfemur -8.65411 -19.9262 -2.77351
ltibia 86.2628
lfoot -36.4384 -22.3456
ltoes -14.4968
1907
root -0.156546 14.1702 13.0331 -578.849 -213.345 163.072
lowerback 7.10254 7.56335 0.115379
upperback 0.96554 10.1818 1.81255
thorax -3.24627 5.09126 0.786942
lowerneck 17.4746 -8.94196 -14.7169
upperneck 5.2762 -14.7827 20.5001
head 1.33731 -8.10535 9.15886
rclavicle -1.19271e-014 4.13472e-014
rhumerus -31.9994 -28.7137 -29.3864
rradius 103.817
rwrist 345.436
rhand -27.4622 -30.098
rfingers 7.12502
rthumb -0.866463 -60.076
lclavicle -1.19271e-014 4.13472e-014
lhumerus -5.31027 55.2771 -6.13288
lradius 43.6619
lwrist 41.0478
lhand -18.896 5.36278
lfingers 7.12502
lthumb 7.40552 35.2132
rfemur 15.5595 -18.5747 5.92014
rtibia 74.6974
rfoot -25.6116 -22.641
rtoes -21.1538
lfemur -8.57341 -19.6166 -3.05467
ltibia 85.0916
lfoot -36.0319 -22.693
ltoes -13.6536
1908
root -0.153817 14.2602 13.0772 -578.03 -213.537 163.549
lowerback 7.25398 7.73607 0.392245
upperback 0.945186 10.4327 1.75552
thorax -3.29659 5.21102 0.536116
lowerneck 17.6679 -9.10686 -14.7087
upperneck 4.70729 -14.9564 20.8358
head 1.19732 -8.2185 9.28751
rclavicle -1.05753e-013 -1.59028e-014
rhumerus -32.8203 -28.1465 -29.8919
rradius 101.933
rwrist 345.682
rhand -26.7213 -29.4514
rfingers 7.12502
rthumb -0.150885 -59.4311
lclavicle -1.05753e-013 -1.59028e-014
lhumerus -9.34676 53.8277 -6.31178
lradius 44.4588
lwrist 39.4889
lhand -19.7349 7.28892
lfingers 7.12502
lthumb 6.59574 37.1662
rfemur 15.1809 -18.6611 6.26886
rtibia 74.0324
rfoot -25.4588 -23.3154
rtoes -19.3523
lfemur -8.43962 -19.2866 -3.28808
ltibia 83.9159
lfoot -35.5108 -23.2774
ltoes -13.4148
1909
root -0.14746 14.3663 13.1262 -577.048 -213.731 164.097
lowerback 7.25073 7.89055 0.459019
upperback 0.895669 10.6424 1.72958
thorax -3.33225 5.31324 0.449975
lowerneck 17.6681 -9.13645 -15.2575
upperneck 4.43394 -15.0919 21.6427
head 1.24033 -8.31708 9.64806
rclavicle 4.21423e-014 5.08889e-014
rhumerus -33.4614 -27.5053 -30.5025
rradius 100.016
rwrist 346.281
rhand -26.4022 -29.0478
rfingers 7.12502
rthumb 0.157284 -59.0275
lclavicle 4.21423e-014 5.08889e-014
lhumerus -13.4223 51.9449 -6.34
lradius 45.1998
lwrist 38.1164
lhand -20.6398 8.15855
lfingers 7.12502
lthumb 5.72216 38.0613
rfemur 14.7553 -18.8424 6.5626
rtibia 73.3376
rfoot -25.1674 -24.1782
rtoes -17.8384
lfemur -8.3165 -18.9025 -3.54518
ltibia 82.633
lfoot -34.9149 -23.8106
ltoes -13.5611
1910
root -0.142489 14.4873 13.1795 -575.969 -214.013 164.671
lowerback 7.14164 7.95722 0.47431
upperback 0.871144 10.7242 1.59033
thorax -3.26877 5.35263 0.309106
lowerneck 18.2259 -9.51441 -14.3554
upperneck 3.09247 -15.2805 21.1062
head 0.698953 -8.44328 9.38431
rclavicle -7.39479e-014 -3.18055e-014
rhumerus -33.9169 -26.9706 -31.4167
rradius 98.1605
rwrist 346.76
rhand -26.7339 -28.4838
rfingers 7.12502
rthumb -0.163105 -58.4634
lclavicle -7.39479e-014 -3.18055e-014
lhumerus -17.3041 50.3318 -6.22567
lradius 45.8917
lwrist 36.6964
lhand -21.7568 8.01806
lfingers 7.12502
lthumb 4.64358 37.9472
rfemur 14.2342 -18.9744 6.91943
rtibia 72.6164
rfoot -25.1045 -25.0525
rtoes -15.9621
lfemur -8.28681 -18.4581 -3.78674
ltibia 81.2794
lfoot -33.9354 -24.6969
ltoes -11.4313
1911
root -0.137383 14.6019 13.2341 -574.927 -214.121 165.239
lowerback 7.06638 8.02025 0.614856
upperback 0.850412 10.8105 1.42473
thorax -3.19164 5.39268 0.0727088
lowerneck 18.3028 -9.76301 -13.8016
upperneck 2.48641 -15.4219 20.8268
head 0.477055 -8.51591 9.21974
rclavicle 1.53462e-013 3.81667e-014
rhumerus -34.2263 -26.3106 -32.3952
rradius 96.5665
rwrist 346.661
rhand -26.8275 -28.5593
rfingers 7.12502
rthumb -0.253519 -58.5389
lclavicle 1.53462e-013 3.81667e-014
lhumerus -20.9192 49.1918 -5.87893
lradius 46.6188
lwrist 35.4555
lhand -22.6451 7.5827
lfingers 7.12502
lthumb 3.78582 37.5288
rfemur 13.6091 -18.7765 7.48489
rtibia 71.9356
rfoot -24.9279 -25.8036
rtoes -13.2331
lfemur -8.13532 -17.9383 -3.94849
ltibia 79.9063
lfoot -33.6539 -24.9499
ltoes -10.315
1912
root -0.127265 14.7104 13.2858 -573.965 -213.971 165.826
lowerback 7.11693 8.14536 1.06419
upperback 0.836013 11.0045 1.2275
thorax -3.1128 5.48256 -0.382137
lowerneck 18.0432 -9.89243 -13.6746
upperneck 2.43694 -15.5412 21.0452
head 0.530329 -8.56633 9.24887
rclavicle 1.82882e-013 -2.8625e-014
rhumerus -34.6395 -25.6955 -33.2698
rradius 95.2841
rwrist 345.989
rhand -26.1322 -28.4803
rfingers 7.12502
rthumb 0.41805 -58.4596
lclavicle 1.82882e-013 -2.8625e-014
lhumerus -24.361 48.072 -5.34596
lradius 47.4172
lwrist 35.4236
lhand -23.0901 7.62569
lfingers 7.12502
lthumb 3.35611 37.579
rfemur 12.9411 -18.3073 8.05047
rtibia 71.3005
rfoot -24.2069 -26.2547
rtoes -11.5365
lfemur -7.7782 -17.3157 -4.12769
ltibia 78.5122
lfoot -33.8519 -24.5365
ltoes -11.1469
1913
root -0.118767 14.8206 13.3375 -573.135 -213.874 166.373
lowerback 7.27178 8.26024 1.36272
upperback 0.85177 11.1804 1.15292
thorax -3.10938 5.56563 -0.648377
lowerneck 17.8153 -10.0445 -13.4988
upperneck 2.13033 -15.6507 21.1806
head 0.493629 -8.61696 9.25191
rclavicle -8.42847e-014 3.18055e-015
rhumerus -35.0166 -25.1002 -33.8806
rradius 94.0564
rwrist 345.059
rhand -25.4851 -27.9978
rfingers 7.12502
rthumb 1.04308 -57.975
lclavicle -8.42847e-014 3.18055e-015
lhumerus -27.9085 46.7735 -4.51848
lradius 48.2868
lwrist 36.2789
lhand -23.8018 7.79516
lfingers 7.12502
lthumb 2.66878 37.7582
rfemur 12.4183 -17.92 8.45542
rtibia 70.7151
rfoot -23.3045 -26.703
rtoes -11.1061
lfemur -7.36444 -16.697 -4.34249
ltibia 77.0975
lfoot -33.8352 -24.0533
ltoes -12.5037
1914
root -0.119124 14.9251 13.3896 -572.484 -214.085 166.665
lowerback 7.47077 8.24514 1.56183
upperback 0.91814 11.1785 1.13252
thorax -3.10849 5.56227 -0.795579
lowerneck 17.5454 -10.1945 -13.4213
upperneck 1.75393 -15.7681 21.3126
head 0.453001 -8.67313 9.26671
rclavicle -1.82087e-013 -2.8625e-014
rhumerus -35.1966 -24.5301 -34.489
rradius 92.7689
rwrist 344.169
rhand -24.9831 -27.6565
rfingers 7.12502
rthumb 1.52791 -57.6307
lclavicle -1.82087e-013 -2.8625e-014
lhumerus -31.1723 45.6847 -3.28466
lradius 49.022
lwrist 37.291
lhand -25.2411 7.58729
lfingers 7.12502
lthumb 1.27873 37.5632
rfemur 12.0038 -17.7607 8.94412
rtibia 70.1884
rfoot -22.3461 -27.3575
rtoes -10.5153
lfemur -7.10951 -16.4853 -4.45589
ltibia 75.7114
lfoot -33.6557 -23.7607
ltoes -13.7915
1915
root -0.124502 15.03 13.436 -571.727 -214.336 166.822
lowerback 7.69601 8.12157 1.60713
upperback 0.784015 11.0262 1.20216
thorax -3.38006 5.4791 -0.784015
lowerneck 17.5625 -10.313 -13.4079
upperneck 1.46187 -15.8872 21.2207
head 0.381456 -8.73744 9.23808
rclavicle 6.83819e-014 9.54166e-015
rhumerus -35.2524 -23.5629 -35.3266
rradius 91.5615
rwrist 343.345
rhand -24.3717 -27.6218
rfingers 7.12502
rthumb 2.1184 -57.591
lclavicle 6.83819e-014 9.54166e-015
lhumerus -34.6282 44.5271 -2.18438
lradius 49.7673
lwrist 38.6685
lhand -26.788 7.62201
lfingers 7.12502
lthumb -0.215359 37.6016
rfemur 11.1952 -17.5755 9.58253
rtibia 69.8013
rfoot -21.1474 -27.8258
rtoes -9.45819
lfemur -7.08278 -16.4234 -4.4405
ltibia 74.3258
lfoot -32.9509 -24.069
ltoes -13.01
1916
root -0.118161 15.1468 13.4916 -570.921 -214.165 167.299
lowerback 7.70443 8.22799 1.96496
upperback 0.887614 11.1911 1.07645
thorax -3.18135 5.56043 -1.09899
lowerneck 17.4978 -10.5681 -13.0013
upperneck 0.917432 -16.0699 21.2054
head 0.234776 -8.8349 9.17387
rclavicle -6.36111e-015 1.59028e-014
rhumerus -34.6537 -23.154 -36.3468
rradius 89.7073
rwrist 342.718
rhand -24.0385 -27.5958
rfingers 7.12502
rthumb 2.44013 -57.5615
lclavicle -6.36111e-015 1.59028e-014
lhumerus -37.3517 43.6156 -0.529937
lradius 50.5492
lwrist 40.5632
lhand -28.3874 7.90919
lfingers 7.12502
lthumb -1.76005 37.8817
rfemur 10.3305 -16.9232 10.0213
rtibia 69.5567
rfoot -19.8273 -27.9692
rtoes -8.34447
lfemur -6.51847 -15.921 -4.56728
ltibia 72.8272
lfoot -32.2665 -24.3644
ltoes -11.5218
1917
root -0.111078 15.2579 13.5499 -570.097 -213.824 167.726
lowerback 7.50712 8.2598 1.99964
upperback 1.0318 11.2342 1.23641
thorax -2.94763 5.58892 -0.915815
lowerneck 17.1347 -10.5328 -12.9807
upperneck 0.541746 -15.9386 21.2856
head 0.164042 -8.76222 9.18386
rclavicle -6.08281e-014 1.43125e-014
rhumerus -34.5387 -22.4131 -37.0968
rradius 88.7969
rwrist 342.215
rhand -23.4418 -27.2474
rfingers 7.12502
rthumb 3.01646 -57.2059
lclavicle -6.08281e-014 1.43125e-014
lhumerus -40.5424 42.0834 1.23092
lradius 51.3379
lwrist 43.0195
lhand -30.2201 8.06598
lfingers 7.12502
lthumb -3.53001 38.0165
rfemur 9.35107 -16.1796 10.5647
rtibia 69.4723
rfoot -18.6078 -28.0188
rtoes -7.103
lfemur -5.93959 -15.3032 -4.54161
ltibia 71.3316
lfoot -32.249 -24.0158
ltoes -12.0867
